<?xml version="1.0" encoding="UTF-8" standalone="no"?>
<!DOCTYPE svg PUBLIC "-//W3C//DTD SVG 1.1//EN"
 "http://www.w3.org/Graphics/SVG/1.1/DTD/svg11.dtd">
<!-- Generated by graphviz version 14.1.4 (20260321.0153)
 -->
<!-- Title: MemQ_Pipeline Pages: 1 -->
<svg width="985pt" height="1714pt"
 viewBox="0.00 0.00 985.00 1714.00" xmlns="http://www.w3.org/2000/svg" xmlns:xlink="http://www.w3.org/1999/xlink">
<g id="graph0" class="graph" transform="scale(1 1) rotate(0) translate(4 1710)">
<title>MemQ_Pipeline</title>
<polygon fill="white" stroke="none" points="-4,4 -4,-1710 981,-1710 981,4 -4,4"/>
<text xml:space="preserve" text-anchor="middle" x="488.5" y="-1684.9" font-family="Helvetica,sans-Serif" font-size="18.00">MemQ Daten&#45;Pipeline — Dateien und Skripte</text>
<text xml:space="preserve" text-anchor="middle" x="488.5" y="-1666.15" font-family="Helvetica,sans-Serif" font-size="18.00">(&#39;*&#39; steht für webqsp bzw. cwq: beide Datensätze durchlaufen die Pipeline parallel)</text>
<g id="clust1" class="cluster">
<title>cluster_train</title>
<polygon fill="#f1f8e9" stroke="#9ccc65" points="512,-469.25 512,-1560.75 825,-1560.75 825,-469.25 512,-469.25"/>
<text xml:space="preserve" text-anchor="middle" x="668.5" y="-1543.45" font-family="Helvetica,sans-Serif" font-size="14.00">Training — Memory&#45;Aufbau (README Step 2–3)</text>
</g>
<g id="clust2" class="cluster">
<title>cluster_test</title>
<polygon fill="#e8eaf6" stroke="#7986cb" points="8,-8 8,-932.5 342,-932.5 342,-8 8,-8"/>
<text xml:space="preserve" text-anchor="middle" x="175" y="-915.2" font-family="Helvetica,sans-Serif" font-size="14.00">Inferenz — Test und Evaluation (README Step 4–5)</text>
</g>
<g id="clust3" class="cluster">
<title>cluster_legend</title>
<polygon fill="#fafafa" stroke="#bdbdbd" points="833,-1193.75 833,-1652.5 969,-1652.5 969,-1193.75 833,-1193.75"/>
<text xml:space="preserve" text-anchor="middle" x="901" y="-1637.1" font-family="Helvetica,sans-Serif" font-size="12.00">Legende</text>
</g>
<!-- raw_webqsp -->
<g id="node1" class="node">
<title>raw_webqsp</title>
<polygon fill="#bbdefb" stroke="black" points="414.88,-1623.75 411.88,-1627.75 390.88,-1627.75 387.88,-1623.75 281.12,-1623.75 281.12,-1587.75 414.88,-1587.75 414.88,-1623.75"/>
<text xml:space="preserve" text-anchor="middle" x="348" y="-1606.55" font-family="Helvetica,sans-Serif" font-size="11.00">data/webqsp/</text>
<text xml:space="preserve" text-anchor="middle" x="348" y="-1595.3" font-family="Helvetica,sans-Serif" font-size="11.00">WebQSP.{train,test}.json</text>
</g>
<!-- s_traindata -->
<g id="node9" class="node">
<title>s_traindata</title>
<path fill="#c8e6c9" stroke="black" d="M621.75,-1529.75C621.75,-1529.75 532.25,-1529.75 532.25,-1529.75 526.25,-1529.75 520.25,-1523.75 520.25,-1517.75 520.25,-1517.75 520.25,-1505.75 520.25,-1505.75 520.25,-1499.75 526.25,-1493.75 532.25,-1493.75 532.25,-1493.75 621.75,-1493.75 621.75,-1493.75 627.75,-1493.75 633.75,-1499.75 633.75,-1505.75 633.75,-1505.75 633.75,-1517.75 633.75,-1517.75 633.75,-1523.75 627.75,-1529.75 621.75,-1529.75"/>
<text xml:space="preserve" text-anchor="middle" x="577" y="-1506.92" font-family="Helvetica,sans-Serif" font-size="11.00">get_my_traindata.py</text>
</g>
<!-- raw_webqsp&#45;&gt;s_traindata -->
<g id="edge1" class="edge">
<title>raw_webqsp&#45;&gt;s_traindata</title>
<path fill="none" stroke="#444444" d="M391.34,-1587.34C428.64,-1572.35 482.62,-1550.67 522.77,-1534.54"/>
<polygon fill="#444444" stroke="#444444" points="524.07,-1537.79 532.04,-1530.81 521.46,-1531.29 524.07,-1537.79"/>
</g>
<!-- s_testdata -->
<g id="node25" class="node">
<title>s_testdata</title>
<path fill="#c8e6c9" stroke="black" d="M321.88,-901.5C321.88,-901.5 236.12,-901.5 236.12,-901.5 230.12,-901.5 224.12,-895.5 224.12,-889.5 224.12,-889.5 224.12,-877.5 224.12,-877.5 224.12,-871.5 230.12,-865.5 236.12,-865.5 236.12,-865.5 321.88,-865.5 321.88,-865.5 327.88,-865.5 333.88,-871.5 333.88,-877.5 333.88,-877.5 333.88,-889.5 333.88,-889.5 333.88,-895.5 327.88,-901.5 321.88,-901.5"/>
<text xml:space="preserve" text-anchor="middle" x="279" y="-878.67" font-family="Helvetica,sans-Serif" font-size="11.00">get_my_testdata.py</text>
</g>
<!-- raw_webqsp&#45;&gt;s_testdata -->
<g id="edge22" class="edge">
<title>raw_webqsp&#45;&gt;s_testdata</title>
<path fill="none" stroke="#444444" d="M329.99,-1587.55C313.95,-1570.31 293,-1542.15 293,-1512.75 293,-1512.75 293,-1512.75 293,-985.25 293,-960.71 288.88,-933.13 285.1,-913.04"/>
<polygon fill="#444444" stroke="#444444" points="288.56,-912.49 283.19,-903.36 281.7,-913.84 288.56,-912.49"/>
</g>
<!-- raw_cwq -->
<g id="node2" class="node">
<title>raw_cwq</title>
<polygon fill="#bbdefb" stroke="black" points="666.25,-1623.75 663.25,-1627.75 642.25,-1627.75 639.25,-1623.75 459.75,-1623.75 459.75,-1587.75 666.25,-1587.75 666.25,-1623.75"/>
<text xml:space="preserve" text-anchor="middle" x="563" y="-1606.55" font-family="Helvetica,sans-Serif" font-size="11.00">data/cwq/</text>
<text xml:space="preserve" text-anchor="middle" x="563" y="-1595.3" font-family="Helvetica,sans-Serif" font-size="11.00">ComplexWebQuestions_{train,test}.json</text>
</g>
<!-- raw_cwq&#45;&gt;s_traindata -->
<g id="edge2" class="edge">
<title>raw_cwq&#45;&gt;s_traindata</title>
<path fill="none" stroke="#444444" d="M565.63,-1587.45C567.61,-1574.47 570.36,-1556.41 572.65,-1541.31"/>
<polygon fill="#444444" stroke="#444444" points="576.11,-1541.89 574.15,-1531.47 569.19,-1540.83 576.11,-1541.89"/>
</g>
<!-- raw_cwq&#45;&gt;s_testdata -->
<g id="edge23" class="edge">
<title>raw_cwq&#45;&gt;s_testdata</title>
<path fill="none" stroke="#444444" d="M485.53,-1587.32C422.87,-1570.9 345,-1544.18 345,-1512.75 345,-1512.75 345,-1512.75 345,-985.25 345,-956.06 325.37,-928.74 307.52,-909.93"/>
<polygon fill="#444444" stroke="#444444" points="310.13,-907.6 300.59,-902.99 305.18,-912.54 310.13,-907.6"/>
</g>
<!-- freebase -->
<g id="node3" class="node">
<title>freebase</title>
<polygon fill="#e1bee7" stroke="black" points="503.88,-1164.75 400.12,-1164.75 400.12,-1160.75 396.12,-1160.75 396.12,-1156.75 400.12,-1156.75 400.12,-1131 396.12,-1131 396.12,-1127 400.12,-1127 400.12,-1123 503.88,-1123 503.88,-1164.75"/>
<polyline fill="none" stroke="black" points="400.12,-1160.75 404.12,-1160.75 404.12,-1156.75 400.12,-1156.75"/>
<polyline fill="none" stroke="black" points="400.12,-1131 404.12,-1131 404.12,-1127 400.12,-1127"/>
<text xml:space="preserve" text-anchor="middle" x="452" y="-1150.3" font-family="Helvetica,sans-Serif" font-size="11.00">Freebase Virtuoso</text>
<text xml:space="preserve" text-anchor="middle" x="452" y="-1139.05" font-family="Helvetica,sans-Serif" font-size="11.00">localhost:3001</text>
<text xml:space="preserve" text-anchor="middle" x="452" y="-1127.8" font-family="Helvetica,sans-Serif" font-size="11.00">(via sparql_util.py)</text>
</g>
<!-- s_cvt -->
<g id="node12" class="node">
<title>s_cvt</title>
<path fill="#c8e6c9" stroke="black" d="M661.75,-1077.25C661.75,-1077.25 602.25,-1077.25 602.25,-1077.25 596.25,-1077.25 590.25,-1071.25 590.25,-1065.25 590.25,-1065.25 590.25,-1053.25 590.25,-1053.25 590.25,-1047.25 596.25,-1041.25 602.25,-1041.25 602.25,-1041.25 661.75,-1041.25 661.75,-1041.25 667.75,-1041.25 673.75,-1047.25 673.75,-1053.25 673.75,-1053.25 673.75,-1065.25 673.75,-1065.25 673.75,-1071.25 667.75,-1077.25 661.75,-1077.25"/>
<text xml:space="preserve" text-anchor="middle" x="632" y="-1054.42" font-family="Helvetica,sans-Serif" font-size="11.00">get_cvt_list.py</text>
</g>
<!-- freebase&#45;&gt;s_cvt -->
<g id="edge41" class="edge">
<title>freebase&#45;&gt;s_cvt</title>
<path fill="none" stroke="#6a1b9a" stroke-dasharray="5,2" d="M501.73,-1122.51C514.61,-1117.02 528.4,-1110.95 541,-1105 549.49,-1100.99 551.36,-1099.46 559.75,-1095.25 567.99,-1091.12 576.79,-1086.78 585.31,-1082.63"/>
<polygon fill="#6a1b9a" stroke="#6a1b9a" points="586.69,-1085.85 594.15,-1078.34 583.63,-1079.55 586.69,-1085.85"/>
<text xml:space="preserve" text-anchor="middle" x="593.88" y="-1096.45" font-family="Helvetica,sans-Serif" font-size="9.00">SPARQL&#45;Checks</text>
</g>
<!-- s_graphexplain -->
<g id="node15" class="node">
<title>s_graphexplain</title>
<path fill="#c8e6c9" stroke="black" d="M634.88,-746.75C634.88,-746.75 561.12,-746.75 561.12,-746.75 555.12,-746.75 549.12,-740.75 549.12,-734.75 549.12,-734.75 549.12,-722.75 549.12,-722.75 549.12,-716.75 555.12,-710.75 561.12,-710.75 561.12,-710.75 634.88,-710.75 634.88,-710.75 640.88,-710.75 646.88,-716.75 646.88,-722.75 646.88,-722.75 646.88,-734.75 646.88,-734.75 646.88,-740.75 640.88,-746.75 634.88,-746.75"/>
<text xml:space="preserve" text-anchor="middle" x="598" y="-723.92" font-family="Helvetica,sans-Serif" font-size="11.00">graph_explain.py</text>
</g>
<!-- freebase&#45;&gt;s_graphexplain -->
<g id="edge42" class="edge">
<title>freebase&#45;&gt;s_graphexplain</title>
<path fill="none" stroke="#6a1b9a" stroke-dasharray="5,2" d="M487.8,-1122.8C508.31,-1108.4 530,-1086.88 530,-1060.25 530,-1060.25 530,-1060.25 530,-809.5 530,-787.39 545.32,-768.31 561.41,-754.35"/>
<polygon fill="#6a1b9a" stroke="#6a1b9a" points="563.58,-757.1 569.16,-748.09 559.19,-751.65 563.58,-757.1"/>
<text xml:space="preserve" text-anchor="middle" x="558.12" y="-941.7" font-family="Helvetica,sans-Serif" font-size="9.00">Entity&#45;Namen</text>
</g>
<!-- s_reconstruct -->
<g id="node30" class="node">
<title>s_reconstruct</title>
<path fill="#c8e6c9" stroke="black" d="M269.75,-130.75C269.75,-130.75 168.25,-130.75 168.25,-130.75 162.25,-130.75 156.25,-124.75 156.25,-118.75 156.25,-118.75 156.25,-101 156.25,-101 156.25,-95 162.25,-89 168.25,-89 168.25,-89 269.75,-89 269.75,-89 275.75,-89 281.75,-95 281.75,-101 281.75,-101 281.75,-118.75 281.75,-118.75 281.75,-124.75 275.75,-130.75 269.75,-130.75"/>
<text xml:space="preserve" text-anchor="middle" x="219" y="-116.3" font-family="Helvetica,sans-Serif" font-size="11.00">reconstruct.py</text>
<text xml:space="preserve" text-anchor="middle" x="219" y="-105.05" font-family="Helvetica,sans-Serif" font-size="11.00">(Query&#45;Rekonstruktion</text>
<text xml:space="preserve" text-anchor="middle" x="219" y="-93.8" font-family="Helvetica,sans-Serif" font-size="11.00">+ Evaluation)</text>
</g>
<!-- freebase&#45;&gt;s_reconstruct -->
<g id="edge43" class="edge">
<title>freebase&#45;&gt;s_reconstruct</title>
<path fill="none" stroke="#6a1b9a" stroke-dasharray="5,2" d="M399.76,-1139.04C314.79,-1131.34 156,-1110.27 156,-1060.25 156,-1060.25 156,-1060.25 156,-184.75 156,-166.77 166.93,-150.96 179.69,-138.62"/>
<polygon fill="#6a1b9a" stroke="#6a1b9a" points="181.95,-141.28 187.11,-132.03 177.31,-136.05 181.95,-141.28"/>
<text xml:space="preserve" text-anchor="middle" x="190.12" y="-605.45" font-family="Helvetica,sans-Serif" font-size="9.00">Query ausführen</text>
</g>
<!-- deepseek -->
<g id="node4" class="node">
<title>deepseek</title>
<polygon fill="#e1bee7" stroke="black" points="938.88,-828.5 835.12,-828.5 835.12,-824.5 831.12,-824.5 831.12,-820.5 835.12,-820.5 835.12,-800.5 831.12,-800.5 831.12,-796.5 835.12,-796.5 835.12,-792.5 938.88,-792.5 938.88,-828.5"/>
<polyline fill="none" stroke="black" points="835.12,-824.5 839.12,-824.5 839.12,-820.5 835.12,-820.5"/>
<polyline fill="none" stroke="black" points="835.12,-800.5 839.12,-800.5 839.12,-796.5 835.12,-796.5"/>
<text xml:space="preserve" text-anchor="middle" x="887" y="-811.3" font-family="Helvetica,sans-Serif" font-size="11.00">DeepSeek API</text>
<text xml:space="preserve" text-anchor="middle" x="887" y="-800.05" font-family="Helvetica,sans-Serif" font-size="11.00">(Key&#45;Erklärungen)</text>
</g>
<!-- s_keyexplain -->
<g id="node14" class="node">
<title>s_keyexplain</title>
<path fill="#c8e6c9" stroke="black" d="M804.75,-746.75C804.75,-746.75 721.25,-746.75 721.25,-746.75 715.25,-746.75 709.25,-740.75 709.25,-734.75 709.25,-734.75 709.25,-722.75 709.25,-722.75 709.25,-716.75 715.25,-710.75 721.25,-710.75 721.25,-710.75 804.75,-710.75 804.75,-710.75 810.75,-710.75 816.75,-716.75 816.75,-722.75 816.75,-722.75 816.75,-734.75 816.75,-734.75 816.75,-740.75 810.75,-746.75 804.75,-746.75"/>
<text xml:space="preserve" text-anchor="middle" x="763" y="-723.92" font-family="Helvetica,sans-Serif" font-size="11.00">get_key_explain.py</text>
</g>
<!-- deepseek&#45;&gt;s_keyexplain -->
<g id="edge44" class="edge">
<title>deepseek&#45;&gt;s_keyexplain</title>
<path fill="none" stroke="#6a1b9a" stroke-dasharray="5,2" d="M860.09,-792.2C842.3,-780.75 818.76,-765.61 799.31,-753.1"/>
<polygon fill="#6a1b9a" stroke="#6a1b9a" points="801.43,-750.31 791.13,-747.84 797.64,-756.19 801.43,-750.31"/>
<text xml:space="preserve" text-anchor="middle" x="868.05" y="-765.95" font-family="Helvetica,sans-Serif" font-size="9.00">LLM&#45;Erklärungen</text>
</g>
<!-- llamafactory -->
<g id="node5" class="node">
<title>llamafactory</title>
<polygon fill="#e1bee7" stroke="black" points="543.5,-440.25 416.5,-440.25 416.5,-436.25 412.5,-436.25 412.5,-432.25 416.5,-432.25 416.5,-412.25 412.5,-412.25 412.5,-408.25 416.5,-408.25 416.5,-404.25 543.5,-404.25 543.5,-440.25"/>
<polyline fill="none" stroke="black" points="416.5,-436.25 420.5,-436.25 420.5,-432.25 416.5,-432.25"/>
<polyline fill="none" stroke="black" points="416.5,-412.25 420.5,-412.25 420.5,-408.25 416.5,-408.25"/>
<text xml:space="preserve" text-anchor="middle" x="480" y="-423.05" font-family="Helvetica,sans-Serif" font-size="11.00">LLaMA&#45;Factory</text>
<text xml:space="preserve" text-anchor="middle" x="480" y="-411.8" font-family="Helvetica,sans-Serif" font-size="11.00">LoRA r=16, 5 Epochen</text>
</g>
<!-- finetuned -->
<g id="node6" class="node">
<title>finetuned</title>
<polygon fill="#e1bee7" stroke="black" points="454,-358.5 366,-358.5 366,-354.5 362,-354.5 362,-350.5 366,-350.5 366,-330.5 362,-330.5 362,-326.5 366,-326.5 366,-322.5 454,-322.5 454,-358.5"/>
<polyline fill="none" stroke="black" points="366,-354.5 370,-354.5 370,-350.5 366,-350.5"/>
<polyline fill="none" stroke="black" points="366,-330.5 370,-330.5 370,-326.5 366,-326.5"/>
<text xml:space="preserve" text-anchor="middle" x="410" y="-341.3" font-family="Helvetica,sans-Serif" font-size="11.00">Finetuned LLM</text>
<text xml:space="preserve" text-anchor="middle" x="410" y="-330.05" font-family="Helvetica,sans-Serif" font-size="11.00">(Planner)</text>
</g>
<!-- llamafactory&#45;&gt;finetuned -->
<g id="edge21" class="edge">
<title>llamafactory&#45;&gt;finetuned</title>
<path fill="none" stroke="#444444" d="M464.81,-403.95C455.36,-393.18 443.04,-379.15 432.48,-367.11"/>
<polygon fill="#444444" stroke="#444444" points="435.38,-365.12 426.16,-359.91 430.12,-369.73 435.38,-365.12"/>
</g>
<!-- s_testplan -->
<g id="node29" class="node">
<title>s_testplan</title>
<path fill="#c8e6c9" stroke="black" d="M311.88,-276.75C311.88,-276.75 244.12,-276.75 244.12,-276.75 238.12,-276.75 232.12,-270.75 232.12,-264.75 232.12,-264.75 232.12,-252.75 232.12,-252.75 232.12,-246.75 238.12,-240.75 244.12,-240.75 244.12,-240.75 311.88,-240.75 311.88,-240.75 317.88,-240.75 323.88,-246.75 323.88,-252.75 323.88,-252.75 323.88,-264.75 323.88,-264.75 323.88,-270.75 317.88,-276.75 311.88,-276.75"/>
<text xml:space="preserve" text-anchor="middle" x="278" y="-253.93" font-family="Helvetica,sans-Serif" font-size="11.00">gen_testplan.py</text>
</g>
<!-- finetuned&#45;&gt;s_testplan -->
<g id="edge36" class="edge">
<title>finetuned&#45;&gt;s_testplan</title>
<path fill="none" stroke="#6a1b9a" stroke-dasharray="5,2" d="M381.36,-322.2C362.33,-310.7 337.13,-295.47 316.37,-282.93"/>
<polygon fill="#6a1b9a" stroke="#6a1b9a" points="318.25,-279.98 307.88,-277.8 314.63,-285.97 318.25,-279.98"/>
<text xml:space="preserve" text-anchor="middle" x="383.4" y="-295.95" font-family="Helvetica,sans-Serif" font-size="9.00">generiert Pläne</text>
</g>
<!-- f_keyexplain -->
<g id="node7" class="node">
<title>f_keyexplain</title>
<polygon fill="#fff9c4" stroke="black" points="933.38,-673.75 832.62,-673.75 832.62,-632 939.38,-632 939.38,-667.75 933.38,-673.75"/>
<polyline fill="none" stroke="black" points="933.38,-673.75 933.38,-667.75"/>
<polyline fill="none" stroke="black" points="939.38,-667.75 933.38,-667.75"/>
<text xml:space="preserve" text-anchor="middle" x="886" y="-659.3" font-family="Helvetica,sans-Serif" font-size="11.00">key_explain.json</text>
<text xml:space="preserve" text-anchor="middle" x="886" y="-648.05" font-family="Helvetica,sans-Serif" font-size="11.00">= das MEMORY</text>
<text xml:space="preserve" text-anchor="middle" x="886" y="-636.8" font-family="Helvetica,sans-Serif" font-size="11.00">(Key → engl. Satz)</text>
</g>
<!-- f_keyexplain&#45;&gt;s_graphexplain -->
<g id="edge16" class="edge">
<title>f_keyexplain&#45;&gt;s_graphexplain</title>
<path fill="none" stroke="#444444" d="M832.35,-672.76C831.22,-673.1 830.11,-673.43 829,-673.75 771.63,-690.41 705.12,-705.52 658.24,-715.5"/>
<polygon fill="#444444" stroke="#444444" points="657.6,-712.05 648.54,-717.54 659.05,-718.9 657.6,-712.05"/>
</g>
<!-- f_keyexplain&#45;&gt;s_reconstruct -->
<g id="edge35" class="edge">
<title>f_keyexplain&#45;&gt;s_reconstruct</title>
<path fill="none" stroke="#f9a825" stroke-width="2" d="M877.43,-631.56C871.25,-615.08 864,-591.07 864,-569.25 864,-569.25 864,-569.25 864,-184.75 864,-128.04 465.36,-114.84 294.87,-111.79"/>
<polygon fill="#f9a825" stroke="#f9a825" stroke-width="2" points="295.1,-108.29 285.05,-111.62 294.99,-115.29 295.1,-108.29"/>
<text xml:space="preserve" text-anchor="middle" x="892.88" y="-377.7" font-family="Helvetica,sans-Serif" font-size="9.00">Memory&#45;Abruf</text>
</g>
<!-- f_midnames -->
<g id="node8" class="node">
<title>f_midnames</title>
<polygon fill="#fff9c4" stroke="black" points="496.25,-828.5 349.75,-828.5 349.75,-792.5 502.25,-792.5 502.25,-822.5 496.25,-828.5"/>
<polyline fill="none" stroke="black" points="496.25,-828.5 496.25,-822.5"/>
<polyline fill="none" stroke="black" points="502.25,-822.5 496.25,-822.5"/>
<text xml:space="preserve" text-anchor="middle" x="426" y="-811.3" font-family="Helvetica,sans-Serif" font-size="11.00">All_cached_mid_names.json</text>
<text xml:space="preserve" text-anchor="middle" x="426" y="-800.05" font-family="Helvetica,sans-Serif" font-size="11.00">(MID → Klarname, Cache)</text>
</g>
<!-- f_midnames&#45;&gt;s_graphexplain -->
<g id="edge37" class="edge">
<title>f_midnames&#45;&gt;s_graphexplain</title>
<path fill="none" stroke="#444444" stroke-dasharray="1,5" d="M456.62,-785.22C466.76,-777.95 478.38,-770.42 489.75,-764.75 504.83,-757.23 521.88,-750.84 537.92,-745.66"/>
<polygon fill="#444444" stroke="#444444" points="454.58,-782.38 448.62,-791.14 458.74,-788.01 454.58,-782.38"/>
<polygon fill="#444444" stroke="#444444" points="538.86,-749.03 547.37,-742.71 536.78,-742.34 538.86,-749.03"/>
<text xml:space="preserve" text-anchor="middle" x="502.88" y="-765.95" font-family="Helvetica,sans-Serif" font-size="9.00">Cache</text>
</g>
<!-- s_finetune -->
<g id="node16" class="node">
<title>s_finetune</title>
<path fill="#c8e6c9" stroke="black" d="M663.75,-586.25C663.75,-586.25 532.25,-586.25 532.25,-586.25 526.25,-586.25 520.25,-580.25 520.25,-574.25 520.25,-574.25 520.25,-562.25 520.25,-562.25 520.25,-556.25 526.25,-550.25 532.25,-550.25 532.25,-550.25 663.75,-550.25 663.75,-550.25 669.75,-550.25 675.75,-556.25 675.75,-562.25 675.75,-562.25 675.75,-574.25 675.75,-574.25 675.75,-580.25 669.75,-586.25 663.75,-586.25"/>
<text xml:space="preserve" text-anchor="middle" x="598" y="-563.42" font-family="Helvetica,sans-Serif" font-size="11.00">gen_memq_finetune_data.py</text>
</g>
<!-- f_midnames&#45;&gt;s_finetune -->
<g id="edge38" class="edge">
<title>f_midnames&#45;&gt;s_finetune</title>
<path fill="none" stroke="#444444" stroke-dasharray="1,5" d="M432.63,-792C445.89,-758.51 478.1,-684.06 521,-632 532.96,-617.48 548.72,-603.94 562.85,-593.18"/>
<polygon fill="#444444" stroke="#444444" points="564.68,-596.19 570.64,-587.43 560.52,-590.56 564.68,-596.19"/>
</g>
<!-- s_prompt -->
<g id="node28" class="node">
<title>s_prompt</title>
<path fill="#c8e6c9" stroke="black" d="M321.62,-440.25C321.62,-440.25 234.38,-440.25 234.38,-440.25 228.38,-440.25 222.38,-434.25 222.38,-428.25 222.38,-428.25 222.38,-416.25 222.38,-416.25 222.38,-410.25 228.38,-404.25 234.38,-404.25 234.38,-404.25 321.62,-404.25 321.62,-404.25 327.62,-404.25 333.62,-410.25 333.62,-416.25 333.62,-416.25 333.62,-428.25 333.62,-428.25 333.62,-434.25 327.62,-440.25 321.62,-440.25"/>
<text xml:space="preserve" text-anchor="middle" x="278" y="-417.43" font-family="Helvetica,sans-Serif" font-size="11.00">gen_prompt_test.py</text>
</g>
<!-- f_midnames&#45;&gt;s_prompt -->
<g id="edge39" class="edge">
<title>f_midnames&#45;&gt;s_prompt</title>
<path fill="none" stroke="#444444" stroke-dasharray="1,5" d="M397.65,-784.2C384.61,-769.75 372,-750.44 372,-729.75 372,-729.75 372,-729.75 372,-494.25 372,-473.1 356.66,-457.45 338.37,-446.31"/>
<polygon fill="#444444" stroke="#444444" points="394.76,-786.25 404.23,-791.02 399.8,-781.39 394.76,-786.25"/>
<polygon fill="#444444" stroke="#444444" points="340.07,-443.25 329.63,-441.47 336.68,-449.37 340.07,-443.25"/>
<text xml:space="preserve" text-anchor="middle" x="385.12" y="-605.45" font-family="Helvetica,sans-Serif" font-size="9.00">Cache</text>
</g>
<!-- f_midnames&#45;&gt;s_reconstruct -->
<g id="edge40" class="edge">
<title>f_midnames&#45;&gt;s_reconstruct</title>
<path fill="none" stroke="#444444" stroke-dasharray="1,5" d="M375.22,-792.06C348.82,-779.43 322,-759.33 322,-729.75 322,-729.75 322,-729.75 322,-567.25 322,-522.61 329.93,-502.37 300,-469.25 272.67,-439.01 241.75,-469.14 213,-440.25 193.9,-421.06 194,-409.45 194,-382.38 194,-382.38 194,-382.38 194,-184.75 194,-169.94 198.56,-154.3 203.79,-141.24"/>
<polygon fill="#444444" stroke="#444444" points="206.88,-142.91 207.65,-132.35 200.46,-140.13 206.88,-142.91"/>
</g>
<!-- f_my_train -->
<g id="node17" class="node">
<title>f_my_train</title>
<polygon fill="#ffe0b2" stroke="black" points="664.25,-1456.75 523.75,-1456.75 523.75,-1420.75 670.25,-1420.75 670.25,-1450.75 664.25,-1456.75"/>
<polyline fill="none" stroke="black" points="664.25,-1456.75 664.25,-1450.75"/>
<polyline fill="none" stroke="black" points="670.25,-1450.75 664.25,-1450.75"/>
<text xml:space="preserve" text-anchor="middle" x="597" y="-1439.55" font-family="Helvetica,sans-Serif" font-size="11.00">my_*_train.json</text>
<text xml:space="preserve" text-anchor="middle" x="597" y="-1428.3" font-family="Helvetica,sans-Serif" font-size="11.00">{id, question, sparql, BegE}</text>
</g>
<!-- s_traindata&#45;&gt;f_my_train -->
<g id="edge3" class="edge">
<title>s_traindata&#45;&gt;f_my_train</title>
<path fill="none" stroke="#444444" d="M581.84,-1493.56C584.03,-1485.8 586.67,-1476.43 589.13,-1467.7"/>
<polygon fill="#444444" stroke="#444444" points="592.45,-1468.81 591.79,-1458.24 585.71,-1466.91 592.45,-1468.81"/>
</g>
<!-- s_parse_train -->
<g id="node10" class="node">
<title>s_parse_train</title>
<path fill="#c8e6c9" stroke="#c62828" stroke-width="2.5" d="M643.12,-1383.75C643.12,-1383.75 558.88,-1383.75 558.88,-1383.75 552.88,-1383.75 546.88,-1377.75 546.88,-1371.75 546.88,-1371.75 546.88,-1359.75 546.88,-1359.75 546.88,-1353.75 552.88,-1347.75 558.88,-1347.75 558.88,-1347.75 643.12,-1347.75 643.12,-1347.75 649.12,-1347.75 655.12,-1353.75 655.12,-1359.75 655.12,-1359.75 655.12,-1371.75 655.12,-1371.75 655.12,-1377.75 649.12,-1383.75 643.12,-1383.75"/>
<text xml:space="preserve" text-anchor="middle" x="601" y="-1366.55" font-family="Helvetica,sans-Serif" font-size="11.00">gen_parse_data.py</text>
<text xml:space="preserve" text-anchor="middle" x="601" y="-1355.3" font-family="Helvetica,sans-Serif" font-size="11.00">(SPARQL&#45;Parser)</text>
</g>
<!-- f_parse_train -->
<g id="node18" class="node">
<title>f_parse_train</title>
<polygon fill="#ffe0b2" stroke="black" points="681.5,-1310.75 524.5,-1310.75 524.5,-1274.75 687.5,-1274.75 687.5,-1304.75 681.5,-1310.75"/>
<polyline fill="none" stroke="black" points="681.5,-1310.75 681.5,-1304.75"/>
<polyline fill="none" stroke="black" points="687.5,-1304.75 681.5,-1304.75"/>
<text xml:space="preserve" text-anchor="middle" x="606" y="-1293.55" font-family="Helvetica,sans-Serif" font-size="11.00">*_train_parse.json</text>
<text xml:space="preserve" text-anchor="middle" x="606" y="-1282.3" font-family="Helvetica,sans-Serif" font-size="11.00">{where[], filter[], exists[], AnsE}</text>
</g>
<!-- s_parse_train&#45;&gt;f_parse_train -->
<g id="edge5" class="edge">
<title>s_parse_train&#45;&gt;f_parse_train</title>
<path fill="none" stroke="#444444" d="M602.26,-1346.83C602.79,-1339.35 603.41,-1330.47 604,-1322.14"/>
<polygon fill="#444444" stroke="#444444" points="607.47,-1322.66 604.68,-1312.44 600.49,-1322.16 607.47,-1322.66"/>
</g>
<!-- s_graph_train -->
<g id="node11" class="node">
<title>s_graph_train</title>
<path fill="#c8e6c9" stroke="black" d="M656.75,-1237.75C656.75,-1237.75 567.25,-1237.75 567.25,-1237.75 561.25,-1237.75 555.25,-1231.75 555.25,-1225.75 555.25,-1225.75 555.25,-1213.75 555.25,-1213.75 555.25,-1207.75 561.25,-1201.75 567.25,-1201.75 567.25,-1201.75 656.75,-1201.75 656.75,-1201.75 662.75,-1201.75 668.75,-1207.75 668.75,-1213.75 668.75,-1213.75 668.75,-1225.75 668.75,-1225.75 668.75,-1231.75 662.75,-1237.75 656.75,-1237.75"/>
<text xml:space="preserve" text-anchor="middle" x="612" y="-1214.92" font-family="Helvetica,sans-Serif" font-size="11.00">build_graph_train.py</text>
</g>
<!-- f_graph_train -->
<g id="node19" class="node">
<title>f_graph_train</title>
<polygon fill="#ffe0b2" stroke="black" points="706.62,-1161.88 535.38,-1161.88 535.38,-1125.88 712.62,-1125.88 712.62,-1155.88 706.62,-1161.88"/>
<polyline fill="none" stroke="black" points="706.62,-1161.88 706.62,-1155.88"/>
<polyline fill="none" stroke="black" points="712.62,-1155.88 706.62,-1155.88"/>
<text xml:space="preserve" text-anchor="middle" x="624" y="-1144.67" font-family="Helvetica,sans-Serif" font-size="11.00">*_train_graph.json</text>
<text xml:space="preserve" text-anchor="middle" x="624" y="-1133.42" font-family="Helvetica,sans-Serif" font-size="11.00">{G, nodeorder, main_path, all_rel}</text>
</g>
<!-- s_graph_train&#45;&gt;f_graph_train -->
<g id="edge7" class="edge">
<title>s_graph_train&#45;&gt;f_graph_train</title>
<path fill="none" stroke="#444444" d="M614.78,-1201.62C616.15,-1193.19 617.84,-1182.82 619.39,-1173.25"/>
<polygon fill="#444444" stroke="#444444" points="622.8,-1174.1 620.95,-1163.67 615.89,-1172.98 622.8,-1174.1"/>
</g>
<!-- f_cvt -->
<g id="node20" class="node">
<title>f_cvt</title>
<polygon fill="#ffe0b2" stroke="black" points="680.12,-1004.25 577.88,-1004.25 577.88,-968.25 686.12,-968.25 686.12,-998.25 680.12,-1004.25"/>
<polyline fill="none" stroke="black" points="680.12,-1004.25 680.12,-998.25"/>
<polyline fill="none" stroke="black" points="686.12,-998.25 680.12,-998.25"/>
<text xml:space="preserve" text-anchor="middle" x="632" y="-987.05" font-family="Helvetica,sans-Serif" font-size="11.00">*_train_cvt_list.json</text>
<text xml:space="preserve" text-anchor="middle" x="632" y="-975.8" font-family="Helvetica,sans-Serif" font-size="11.00">{cvt_list}</text>
</g>
<!-- s_cvt&#45;&gt;f_cvt -->
<g id="edge9" class="edge">
<title>s_cvt&#45;&gt;f_cvt</title>
<path fill="none" stroke="#444444" d="M632,-1041.06C632,-1033.48 632,-1024.35 632,-1015.79"/>
<polygon fill="#444444" stroke="#444444" points="635.5,-1015.79 632,-1005.79 628.5,-1015.79 635.5,-1015.79"/>
</g>
<!-- s_split -->
<g id="node13" class="node">
<title>s_split</title>
<path fill="#c8e6c9" stroke="black" d="M661.38,-901.5C661.38,-901.5 602.62,-901.5 602.62,-901.5 596.62,-901.5 590.62,-895.5 590.62,-889.5 590.62,-889.5 590.62,-877.5 590.62,-877.5 590.62,-871.5 596.62,-865.5 602.62,-865.5 602.62,-865.5 661.38,-865.5 661.38,-865.5 667.38,-865.5 673.38,-871.5 673.38,-877.5 673.38,-877.5 673.38,-889.5 673.38,-889.5 673.38,-895.5 667.38,-901.5 661.38,-901.5"/>
<text xml:space="preserve" text-anchor="middle" x="632" y="-878.67" font-family="Helvetica,sans-Serif" font-size="11.00">graph_split.py</text>
</g>
<!-- f_allkey -->
<g id="node21" class="node">
<title>f_allkey</title>
<polygon fill="#ffe0b2" stroke="black" points="810.75,-828.5 697.25,-828.5 697.25,-792.5 816.75,-792.5 816.75,-822.5 810.75,-828.5"/>
<polyline fill="none" stroke="black" points="810.75,-828.5 810.75,-822.5"/>
<polyline fill="none" stroke="black" points="816.75,-822.5 810.75,-822.5"/>
<text xml:space="preserve" text-anchor="middle" x="757" y="-811.3" font-family="Helvetica,sans-Serif" font-size="11.00">all_key.json</text>
<text xml:space="preserve" text-anchor="middle" x="757" y="-800.05" font-family="Helvetica,sans-Serif" font-size="11.00">(Teilmuster Typ 1/2/3)</text>
</g>
<!-- s_split&#45;&gt;f_allkey -->
<g id="edge11" class="edge">
<title>s_split&#45;&gt;f_allkey</title>
<path fill="none" stroke="#444444" d="M662.58,-865.13C678.77,-855.93 698.87,-844.52 716.36,-834.58"/>
<polygon fill="#444444" stroke="#444444" points="718.02,-837.67 724.99,-829.68 714.56,-831.58 718.02,-837.67"/>
</g>
<!-- f_mergesplit -->
<g id="node22" class="node">
<title>f_mergesplit</title>
<polygon fill="#ffe0b2" stroke="black" points="673.5,-828.5 558.5,-828.5 558.5,-792.5 679.5,-792.5 679.5,-822.5 673.5,-828.5"/>
<polyline fill="none" stroke="black" points="673.5,-828.5 673.5,-822.5"/>
<polyline fill="none" stroke="black" points="679.5,-822.5 673.5,-822.5"/>
<text xml:space="preserve" text-anchor="middle" x="619" y="-805.67" font-family="Helvetica,sans-Serif" font-size="11.00">merge_split_data.json</text>
</g>
<!-- s_split&#45;&gt;f_mergesplit -->
<g id="edge13" class="edge">
<title>s_split&#45;&gt;f_mergesplit</title>
<path fill="none" stroke="#444444" d="M628.85,-865.31C627.45,-857.64 625.75,-848.39 624.17,-839.74"/>
<polygon fill="#444444" stroke="#444444" points="627.63,-839.22 622.39,-830.02 620.75,-840.48 627.63,-839.22"/>
</g>
<!-- s_keyexplain&#45;&gt;f_keyexplain -->
<g id="edge15" class="edge">
<title>s_keyexplain&#45;&gt;f_keyexplain</title>
<path fill="none" stroke="#444444" d="M791.84,-710.43C806.91,-701.37 825.68,-690.1 842.48,-680.01"/>
<polygon fill="#444444" stroke="#444444" points="844.04,-683.16 850.81,-675.01 840.43,-677.16 844.04,-683.16"/>
</g>
<!-- f_mergeexplain -->
<g id="node23" class="node">
<title>f_mergeexplain</title>
<polygon fill="#ffe0b2" stroke="black" points="660,-670.88 530,-670.88 530,-634.88 666,-634.88 666,-664.88 660,-670.88"/>
<polyline fill="none" stroke="black" points="660,-670.88 660,-664.88"/>
<polyline fill="none" stroke="black" points="666,-664.88 660,-664.88"/>
<text xml:space="preserve" text-anchor="middle" x="598" y="-653.67" font-family="Helvetica,sans-Serif" font-size="11.00">merge_explain_data.json</text>
<text xml:space="preserve" text-anchor="middle" x="598" y="-642.42" font-family="Helvetica,sans-Serif" font-size="11.00">(Reasoning&#45;Steps)</text>
</g>
<!-- s_graphexplain&#45;&gt;f_mergeexplain -->
<g id="edge17" class="edge">
<title>s_graphexplain&#45;&gt;f_mergeexplain</title>
<path fill="none" stroke="#444444" d="M598,-710.62C598,-702.28 598,-692.04 598,-682.57"/>
<polygon fill="#444444" stroke="#444444" points="601.5,-682.69 598,-672.69 594.5,-682.69 601.5,-682.69"/>
</g>
<!-- f_finetunedata -->
<g id="node24" class="node">
<title>f_finetunedata</title>
<polygon fill="#ffe0b2" stroke="black" stroke-width="2" points="657.88,-513.25 524.12,-513.25 524.12,-477.25 663.88,-477.25 663.88,-507.25 657.88,-513.25"/>
<polyline fill="none" stroke="black" stroke-width="2" points="657.88,-513.25 657.88,-507.25"/>
<polyline fill="none" stroke="black" stroke-width="2" points="663.88,-507.25 657.88,-507.25"/>
<text xml:space="preserve" text-anchor="middle" x="594" y="-490.43" font-family="Helvetica,sans-Serif" font-size="11.00">memq_finetune_data.json</text>
</g>
<!-- s_finetune&#45;&gt;f_finetunedata -->
<g id="edge19" class="edge">
<title>s_finetune&#45;&gt;f_finetunedata</title>
<path fill="none" stroke="#444444" d="M597.03,-550.06C596.61,-542.59 596.11,-533.62 595.63,-525.17"/>
<polygon fill="#444444" stroke="#444444" points="599.13,-525.07 595.07,-515.28 592.14,-525.46 599.13,-525.07"/>
</g>
<!-- f_my_train&#45;&gt;s_parse_train -->
<g id="edge4" class="edge">
<title>f_my_train&#45;&gt;s_parse_train</title>
<path fill="none" stroke="#444444" d="M597.97,-1420.56C598.38,-1413.2 598.88,-1404.39 599.35,-1396.05"/>
<polygon fill="#444444" stroke="#444444" points="602.83,-1396.46 599.9,-1386.28 595.84,-1396.07 602.83,-1396.46"/>
</g>
<!-- f_parse_train&#45;&gt;s_graph_train -->
<g id="edge6" class="edge">
<title>f_parse_train&#45;&gt;s_graph_train</title>
<path fill="none" stroke="#444444" d="M607.45,-1274.56C608.1,-1266.89 608.88,-1257.64 609.61,-1248.99"/>
<polygon fill="#444444" stroke="#444444" points="613.08,-1249.55 610.43,-1239.29 606.1,-1248.96 613.08,-1249.55"/>
</g>
<!-- f_graph_train&#45;&gt;s_cvt -->
<g id="edge8" class="edge">
<title>f_graph_train&#45;&gt;s_cvt</title>
<path fill="none" stroke="#444444" d="M628.43,-1125.65C629.87,-1119.22 631.29,-1111.82 632,-1105 632.54,-1099.82 632.8,-1094.28 632.88,-1088.93"/>
<polygon fill="#444444" stroke="#444444" points="636.39,-1089.22 632.85,-1079.23 629.39,-1089.25 636.39,-1089.22"/>
</g>
<!-- f_cvt&#45;&gt;s_split -->
<g id="edge10" class="edge">
<title>f_cvt&#45;&gt;s_split</title>
<path fill="none" stroke="#444444" d="M632,-968.16C632,-953.11 632,-930.88 632,-913.11"/>
<polygon fill="#444444" stroke="#444444" points="635.5,-913.19 632,-903.19 628.5,-913.19 635.5,-913.19"/>
</g>
<!-- f_allkey&#45;&gt;s_keyexplain -->
<g id="edge12" class="edge">
<title>f_allkey&#45;&gt;s_keyexplain</title>
<path fill="none" stroke="#444444" d="M758.3,-792.2C759.05,-782.27 760.01,-769.56 760.86,-758.2"/>
<polygon fill="#444444" stroke="#444444" points="764.33,-758.76 761.59,-748.53 757.35,-758.24 764.33,-758.76"/>
</g>
<!-- f_mergesplit&#45;&gt;s_graphexplain -->
<g id="edge14" class="edge">
<title>f_mergesplit&#45;&gt;s_graphexplain</title>
<path fill="none" stroke="#444444" d="M614.44,-792.2C611.8,-782.16 608.41,-769.29 605.4,-757.84"/>
<polygon fill="#444444" stroke="#444444" points="608.86,-757.26 602.93,-748.48 602.1,-759.05 608.86,-757.26"/>
</g>
<!-- f_mergeexplain&#45;&gt;s_finetune -->
<g id="edge18" class="edge">
<title>f_mergeexplain&#45;&gt;s_finetune</title>
<path fill="none" stroke="#444444" d="M598,-634.76C598,-624.19 598,-610.37 598,-598.14"/>
<polygon fill="#444444" stroke="#444444" points="601.5,-598.15 598,-588.15 594.5,-598.15 601.5,-598.15"/>
</g>
<!-- f_finetunedata&#45;&gt;llamafactory -->
<g id="edge20" class="edge">
<title>f_finetunedata&#45;&gt;llamafactory</title>
<path fill="none" stroke="#444444" d="M565.23,-476.33C550.7,-467.28 532.9,-456.2 517.33,-446.5"/>
<polygon fill="#444444" stroke="#444444" points="519.59,-443.79 509.25,-441.47 515.89,-449.73 519.59,-443.79"/>
</g>
<!-- f_my_test -->
<g id="node31" class="node">
<title>f_my_test</title>
<polygon fill="#ffe0b2" stroke="black" points="292.25,-828.5 211.75,-828.5 211.75,-792.5 298.25,-792.5 298.25,-822.5 292.25,-828.5"/>
<polyline fill="none" stroke="black" points="292.25,-828.5 292.25,-822.5"/>
<polyline fill="none" stroke="black" points="298.25,-822.5 292.25,-822.5"/>
<text xml:space="preserve" text-anchor="middle" x="255" y="-805.67" font-family="Helvetica,sans-Serif" font-size="11.00">my_*_test.json</text>
</g>
<!-- s_testdata&#45;&gt;f_my_test -->
<g id="edge24" class="edge">
<title>s_testdata&#45;&gt;f_my_test</title>
<path fill="none" stroke="#444444" d="M273.19,-865.31C270.54,-857.46 267.33,-847.97 264.35,-839.16"/>
<polygon fill="#444444" stroke="#444444" points="267.76,-838.32 261.24,-829.96 261.13,-840.56 267.76,-838.32"/>
</g>
<!-- s_parse_test -->
<g id="node26" class="node">
<title>s_parse_test</title>
<path fill="#c8e6c9" stroke="#c62828" stroke-width="2.5" d="M282.12,-746.75C282.12,-746.75 197.88,-746.75 197.88,-746.75 191.88,-746.75 185.88,-740.75 185.88,-734.75 185.88,-734.75 185.88,-722.75 185.88,-722.75 185.88,-716.75 191.88,-710.75 197.88,-710.75 197.88,-710.75 282.12,-710.75 282.12,-710.75 288.12,-710.75 294.12,-716.75 294.12,-722.75 294.12,-722.75 294.12,-734.75 294.12,-734.75 294.12,-740.75 288.12,-746.75 282.12,-746.75"/>
<text xml:space="preserve" text-anchor="middle" x="240" y="-729.55" font-family="Helvetica,sans-Serif" font-size="11.00">gen_parse_data.py</text>
<text xml:space="preserve" text-anchor="middle" x="240" y="-718.3" font-family="Helvetica,sans-Serif" font-size="11.00">(SPARQL&#45;Parser)</text>
</g>
<!-- f_parse_test -->
<g id="node32" class="node">
<title>f_parse_test</title>
<polygon fill="#ffe0b2" stroke="black" points="283.62,-670.88 190.38,-670.88 190.38,-634.88 289.62,-634.88 289.62,-664.88 283.62,-670.88"/>
<polyline fill="none" stroke="black" points="283.62,-670.88 283.62,-664.88"/>
<polyline fill="none" stroke="black" points="289.62,-664.88 283.62,-664.88"/>
<text xml:space="preserve" text-anchor="middle" x="240" y="-648.05" font-family="Helvetica,sans-Serif" font-size="11.00">*_test_parse.json</text>
</g>
<!-- s_parse_test&#45;&gt;f_parse_test -->
<g id="edge26" class="edge">
<title>s_parse_test&#45;&gt;f_parse_test</title>
<path fill="none" stroke="#444444" d="M240,-709.87C240,-701.73 240,-691.9 240,-682.76"/>
<polygon fill="#444444" stroke="#444444" points="243.5,-682.85 240,-672.85 236.5,-682.85 243.5,-682.85"/>
</g>
<!-- s_graph_test -->
<g id="node27" class="node">
<title>s_graph_test</title>
<path fill="#c8e6c9" stroke="black" d="M281.88,-586.25C281.88,-586.25 196.12,-586.25 196.12,-586.25 190.12,-586.25 184.12,-580.25 184.12,-574.25 184.12,-574.25 184.12,-562.25 184.12,-562.25 184.12,-556.25 190.12,-550.25 196.12,-550.25 196.12,-550.25 281.88,-550.25 281.88,-550.25 287.88,-550.25 293.88,-556.25 293.88,-562.25 293.88,-562.25 293.88,-574.25 293.88,-574.25 293.88,-580.25 287.88,-586.25 281.88,-586.25"/>
<text xml:space="preserve" text-anchor="middle" x="239" y="-563.42" font-family="Helvetica,sans-Serif" font-size="11.00">build_graph_test.py</text>
</g>
<!-- f_graph_test -->
<g id="node33" class="node">
<title>f_graph_test</title>
<polygon fill="#ffe0b2" stroke="black" points="285,-513.25 191,-513.25 191,-477.25 291,-477.25 291,-507.25 285,-513.25"/>
<polyline fill="none" stroke="black" points="285,-513.25 285,-507.25"/>
<polyline fill="none" stroke="black" points="291,-507.25 285,-507.25"/>
<text xml:space="preserve" text-anchor="middle" x="241" y="-490.43" font-family="Helvetica,sans-Serif" font-size="11.00">*_test_graph.json</text>
</g>
<!-- s_graph_test&#45;&gt;f_graph_test -->
<g id="edge28" class="edge">
<title>s_graph_test&#45;&gt;f_graph_test</title>
<path fill="none" stroke="#444444" d="M239.48,-550.06C239.7,-542.39 239.96,-533.14 240.2,-524.49"/>
<polygon fill="#444444" stroke="#444444" points="243.69,-524.89 240.48,-514.79 236.7,-524.69 243.69,-524.89"/>
</g>
<!-- f_prompt -->
<g id="node34" class="node">
<title>f_prompt</title>
<polygon fill="#ffe0b2" stroke="black" points="325,-358.5 225,-358.5 225,-322.5 331,-322.5 331,-352.5 325,-358.5"/>
<polyline fill="none" stroke="black" points="325,-358.5 325,-352.5"/>
<polyline fill="none" stroke="black" points="331,-352.5 325,-352.5"/>
<text xml:space="preserve" text-anchor="middle" x="278" y="-335.68" font-family="Helvetica,sans-Serif" font-size="11.00">*_test_prompt.json</text>
</g>
<!-- s_prompt&#45;&gt;f_prompt -->
<g id="edge30" class="edge">
<title>s_prompt&#45;&gt;f_prompt</title>
<path fill="none" stroke="#444444" d="M278,-403.95C278,-394.02 278,-381.31 278,-369.95"/>
<polygon fill="#444444" stroke="#444444" points="281.5,-370.28 278,-360.28 274.5,-370.28 281.5,-370.28"/>
</g>
<!-- f_plan -->
<g id="node35" class="node">
<title>f_plan</title>
<polygon fill="#ffe0b2" stroke="black" points="320.12,-203.75 223.88,-203.75 223.88,-167.75 326.12,-167.75 326.12,-197.75 320.12,-203.75"/>
<polyline fill="none" stroke="black" points="320.12,-203.75 320.12,-197.75"/>
<polyline fill="none" stroke="black" points="326.12,-197.75 320.12,-197.75"/>
<text xml:space="preserve" text-anchor="middle" x="275" y="-186.55" font-family="Helvetica,sans-Serif" font-size="11.00">*_test_plan.json</text>
<text xml:space="preserve" text-anchor="middle" x="275" y="-175.3" font-family="Helvetica,sans-Serif" font-size="11.00">(generierte Pläne)</text>
</g>
<!-- s_testplan&#45;&gt;f_plan -->
<g id="edge32" class="edge">
<title>s_testplan&#45;&gt;f_plan</title>
<path fill="none" stroke="#444444" d="M277.27,-240.56C276.95,-232.89 276.56,-223.64 276.19,-214.99"/>
<polygon fill="#444444" stroke="#444444" points="279.7,-215.13 275.78,-205.29 272.71,-215.43 279.7,-215.13"/>
</g>
<!-- f_result -->
<g id="node36" class="node">
<title>f_result</title>
<polygon fill="#ffe0b2" stroke="black" stroke-width="2" points="275.75,-52 156.25,-52 156.25,-16 281.75,-16 281.75,-46 275.75,-52"/>
<polyline fill="none" stroke="black" stroke-width="2" points="275.75,-52 275.75,-46"/>
<polyline fill="none" stroke="black" stroke-width="2" points="281.75,-46 275.75,-46"/>
<text xml:space="preserve" text-anchor="middle" x="219" y="-34.8" font-family="Helvetica,sans-Serif" font-size="11.00">*_test_reconstruct.json</text>
<text xml:space="preserve" text-anchor="middle" x="219" y="-23.55" font-family="Helvetica,sans-Serif" font-size="11.00">+ Hits@1&#45;Metrik</text>
</g>
<!-- s_reconstruct&#45;&gt;f_result -->
<g id="edge34" class="edge">
<title>s_reconstruct&#45;&gt;f_result</title>
<path fill="none" stroke="#444444" d="M219,-88.69C219,-81.11 219,-72.34 219,-64.11"/>
<polygon fill="#444444" stroke="#444444" points="222.5,-64.16 219,-54.16 215.5,-64.16 222.5,-64.16"/>
</g>
<!-- f_my_test&#45;&gt;s_parse_test -->
<g id="edge25" class="edge">
<title>f_my_test&#45;&gt;s_parse_test</title>
<path fill="none" stroke="#444444" d="M251.75,-792.2C249.92,-782.47 247.59,-770.08 245.48,-758.9"/>
<polygon fill="#444444" stroke="#444444" points="248.97,-758.52 243.68,-749.34 242.09,-759.81 248.97,-758.52"/>
</g>
<!-- f_parse_test&#45;&gt;s_graph_test -->
<g id="edge27" class="edge">
<title>f_parse_test&#45;&gt;s_graph_test</title>
<path fill="none" stroke="#444444" d="M239.79,-634.76C239.66,-624.19 239.5,-610.37 239.35,-598.14"/>
<polygon fill="#444444" stroke="#444444" points="242.85,-598.1 239.23,-588.15 235.85,-598.19 242.85,-598.1"/>
</g>
<!-- f_graph_test&#45;&gt;s_prompt -->
<g id="edge29" class="edge">
<title>f_graph_test&#45;&gt;s_prompt</title>
<path fill="none" stroke="#444444" d="M249.96,-477.06C254.14,-469.04 259.21,-459.3 263.89,-450.32"/>
<polygon fill="#444444" stroke="#444444" points="266.91,-452.11 268.43,-441.62 260.7,-448.87 266.91,-452.11"/>
</g>
<!-- f_prompt&#45;&gt;s_testplan -->
<g id="edge31" class="edge">
<title>f_prompt&#45;&gt;s_testplan</title>
<path fill="none" stroke="#444444" d="M278,-322.2C278,-312.27 278,-299.56 278,-288.2"/>
<polygon fill="#444444" stroke="#444444" points="281.5,-288.53 278,-278.53 274.5,-288.53 281.5,-288.53"/>
</g>
<!-- f_plan&#45;&gt;s_reconstruct -->
<g id="edge33" class="edge">
<title>f_plan&#45;&gt;s_reconstruct</title>
<path fill="none" stroke="#444444" d="M262.01,-167.62C255.81,-159.43 248.21,-149.41 241.13,-140.07"/>
<polygon fill="#444444" stroke="#444444" points="244.05,-138.12 235.22,-132.27 238.47,-142.35 244.05,-138.12"/>
</g>
<!-- leg_raw -->
<g id="node37" class="node">
<title>leg_raw</title>
<polygon fill="#bbdefb" stroke="black" points="937.5,-1623.75 934.5,-1627.75 913.5,-1627.75 910.5,-1623.75 864.5,-1623.75 864.5,-1587.75 937.5,-1587.75 937.5,-1623.75"/>
<text xml:space="preserve" text-anchor="middle" x="901" y="-1602.08" font-family="Helvetica,sans-Serif" font-size="9.00">Rohdatensatz</text>
</g>
<!-- leg_script -->
<g id="node38" class="node">
<title>leg_script</title>
<path fill="#c8e6c9" stroke="black" d="M924.38,-1529.75C924.38,-1529.75 877.62,-1529.75 877.62,-1529.75 871.62,-1529.75 865.62,-1523.75 865.62,-1517.75 865.62,-1517.75 865.62,-1505.75 865.62,-1505.75 865.62,-1499.75 871.62,-1493.75 877.62,-1493.75 877.62,-1493.75 924.38,-1493.75 924.38,-1493.75 930.38,-1493.75 936.38,-1499.75 936.38,-1505.75 936.38,-1505.75 936.38,-1517.75 936.38,-1517.75 936.38,-1523.75 930.38,-1529.75 924.38,-1529.75"/>
<text xml:space="preserve" text-anchor="middle" x="901" y="-1508.08" font-family="Helvetica,sans-Serif" font-size="9.00">Python&#45;Skript</text>
</g>
<!-- leg_raw&#45;&gt;leg_script -->
<!-- leg_file -->
<g id="node39" class="node">
<title>leg_file</title>
<polygon fill="#ffe0b2" stroke="black" points="950.62,-1456.75 845.38,-1456.75 845.38,-1420.75 956.62,-1420.75 956.62,-1450.75 950.62,-1456.75"/>
<polyline fill="none" stroke="black" points="950.62,-1456.75 950.62,-1450.75"/>
<polyline fill="none" stroke="black" points="956.62,-1450.75 950.62,-1450.75"/>
<text xml:space="preserve" text-anchor="middle" x="901" y="-1435.08" font-family="Helvetica,sans-Serif" font-size="9.00">erzeugte Datei (output/)</text>
</g>
<!-- leg_script&#45;&gt;leg_file -->
<!-- leg_mem -->
<g id="node40" class="node">
<title>leg_mem</title>
<polygon fill="#fff9c4" stroke="black" points="954.75,-1383.75 841.25,-1383.75 841.25,-1347.75 960.75,-1347.75 960.75,-1377.75 954.75,-1383.75"/>
<polyline fill="none" stroke="black" points="954.75,-1383.75 954.75,-1377.75"/>
<polyline fill="none" stroke="black" points="960.75,-1377.75 954.75,-1377.75"/>
<text xml:space="preserve" text-anchor="middle" x="901" y="-1362.08" font-family="Helvetica,sans-Serif" font-size="9.00">geteiltes Memory&#45;Artefakt</text>
</g>
<!-- leg_file&#45;&gt;leg_mem -->
<!-- leg_ext -->
<g id="node41" class="node">
<title>leg_ext</title>
<polygon fill="#e1bee7" stroke="black" points="957,-1310.75 845,-1310.75 845,-1306.75 841,-1306.75 841,-1302.75 845,-1302.75 845,-1282.75 841,-1282.75 841,-1278.75 845,-1278.75 845,-1274.75 957,-1274.75 957,-1310.75"/>
<polyline fill="none" stroke="black" points="845,-1306.75 849,-1306.75 849,-1302.75 845,-1302.75"/>
<polyline fill="none" stroke="black" points="845,-1282.75 849,-1282.75 849,-1278.75 845,-1278.75"/>
<text xml:space="preserve" text-anchor="middle" x="901" y="-1289.08" font-family="Helvetica,sans-Serif" font-size="9.00">externer Dienst / Modell</text>
</g>
<!-- leg_mem&#45;&gt;leg_ext -->
<!-- leg_new -->
<g id="node42" class="node">
<title>leg_new</title>
<path fill="#c8e6c9" stroke="#c62828" stroke-width="2.5" d="M944.62,-1237.75C944.62,-1237.75 857.38,-1237.75 857.38,-1237.75 851.38,-1237.75 845.38,-1231.75 845.38,-1225.75 845.38,-1225.75 845.38,-1213.75 845.38,-1213.75 845.38,-1207.75 851.38,-1201.75 857.38,-1201.75 857.38,-1201.75 944.62,-1201.75 944.62,-1201.75 950.62,-1201.75 956.62,-1207.75 956.62,-1213.75 956.62,-1213.75 956.62,-1225.75 956.62,-1225.75 956.62,-1231.75 950.62,-1237.75 944.62,-1237.75"/>
<text xml:space="preserve" text-anchor="middle" x="901" y="-1220.95" font-family="Helvetica,sans-Serif" font-size="9.00">selbst ergänzt</text>
<text xml:space="preserve" text-anchor="middle" x="901" y="-1211.2" font-family="Helvetica,sans-Serif" font-size="9.00">(fehlt im Original&#45;Repo)</text>
</g>
<!-- leg_ext&#45;&gt;leg_new -->
</g>
</svg>
